# xmcd
#
# Track frame offsets:
#	150
#	12095
#	21595
#	32752
#	43005
#	55770
#	69087
#	79977
#	89802
#	101415
#
# Disc length: 1486 seconds
#
# Revision: 0
# Processed by: cddbd v1.5.2PL0 Copyright (c) Steve Scherf et al.
# Submitted via: dBpowerAMP V4.0
#
DISCID=7b05cc0a
DTITLE=Connie Smith - Connie Smith (Lassoes 'N Spurs)
DYEAR=1991
DGENRE=Country
TTITLE0=Ribbon Of Darkness
TTITLE1=I'll Come Running
TTITLE2=Run Away Little Tears
TTITLE3=Baby's Back Again
TTITLE4=The Huntin's All Over
TTITLE5=There Goes My Everything
TTITLE6=It's Such A Pretty World Today
TTITLE7=It Only Hurts For A Little While
TTITLE8=Burning Bridges
TTITLE9=Touch My Heart
EXTD=
EXTT0=
EXTT1=
EXTT2=
EXTT3=
EXTT4=
EXTT5=
EXTT6=
EXTT7=
EXTT8=
EXTT9=
PLAYORDER=
